<svg width="20" height="20" viewBox="0 0 20 20" fill="none" xmlns="http://www.w3.org/2000/svg">
<path d="M9.24902 8.39401H12.5824V4.36475" stroke="black" stroke-width="0.952381" stroke-linecap="round" stroke-linejoin="round"/>
<path d="M12.583 8.39401C10.6919 5.70783 8.80301 4.36475 6.91634 4.36475C5.02967 4.36475 3.36301 5.1706 1.91634 6.7823M4.91634 11.2145H1.58301V15.2437" stroke="black" stroke-width="0.952381" stroke-linecap="round" stroke-linejoin="round"/>
<path d="M1.58301 11.2148C3.47412 13.901 5.36301 15.2441 7.24967 15.2441C9.13634 15.2441 10.803 14.4383 12.2497 12.8265" stroke="black" stroke-width="0.952381" stroke-linecap="round" stroke-linejoin="round"/>
<path d="M17.4458 9.93958C16.7992 9.29236 16.0114 8.96875 15.0825 8.96875C14.1542 8.96875 13.3672 9.29236 12.72 9.93958C12.0733 10.5868 11.75 11.3743 11.75 12.3021C11.7494 13.231 12.0728 14.0188 12.72 14.6654C13.3672 15.3121 14.155 15.6354 15.0833 15.6354C16.0117 15.6354 16.7992 15.3121 17.4458 14.6654C18.0931 14.0188 18.4167 13.231 18.4167 12.3021C18.4161 11.3743 18.0925 10.5868 17.4458 9.93958Z" fill="#FF0000"/>
<path d="M16.2021 10.9854L14.9795 12.2079L13.7571 10.9854L13.3496 11.3929L14.572 12.6154L13.3496 13.8379L13.7571 14.2454L14.9795 13.0229L16.2021 14.2454L16.6096 13.8379L15.3872 12.6154L16.6096 11.3929L16.2021 10.9854Z" fill="white"/>
</svg>
